<?xml version="1.0" standalone="no"?>
<!DOCTYPE svg PUBLIC "-//W3C//DTD SVG 20010904//EN"
 "http://www.w3.org/TR/2001/REC-SVG-20010904/DTD/svg10.dtd">
<svg version="1.0" xmlns="http://www.w3.org/2000/svg"
 width="512.000000pt" height="512.000000pt" viewBox="0 0 512.000000 512.000000"
 preserveAspectRatio="xMidYMid meet">

<g transform="translate(0.000000,512.000000) scale(0.100000,-0.100000)"
fill="#000000" stroke="none">
<path d="M2905 5113 c-400 -47 -678 -155 -973 -377 -103 -79 -277 -251 -355
-353 -242 -316 -377 -723 -377 -1133 0 -305 69 -586 211 -859 33 -63 58 -115
57 -116 -2 -1 -268 40 -593 91 -324 51 -604 93 -621 94 -17 0 -38 -8 -47 -18
-11 -12 -30 -108 -62 -312 -27 -167 -51 -297 -58 -299 -6 -2 -21 -14 -34 -27
l-23 -23 0 -328 c0 -180 5 -367 10 -415 40 -348 281 -655 607 -774 l73 -27 0
-118 0 -119 624 0 625 0 3 22 3 23 1410 5 1410 5 57 27 c115 54 204 169 227
292 6 33 11 66 11 73 0 25 -39 53 -75 53 l-36 0 32 47 c39 57 64 122 74 190 6
47 4 54 -19 78 -16 16 -36 25 -56 25 l-31 0 24 32 c49 65 87 173 87 245 0 25
-39 53 -75 53 l-35 0 34 50 c37 54 61 118 72 192 5 42 3 50 -19 72 l-26 26
-648 0 -648 0 122 59 c340 165 607 408 798 726 255 424 330 946 205 1428 -96
374 -325 731 -625 977 -275 225 -625 370 -987 409 -91 10 -285 13 -353 4z
m340 -123 c421 -49 787 -227 1071 -522 243 -251 387 -527 461 -877 23 -111 27
-150 27 -326 1 -215 -6 -277 -54 -460 -51 -194 -124 -356 -239 -526 -256 -381
-641 -638 -1106 -740 -87 -19 -140 -22 -417 -26 l-318 -5 0 141 c0 139 -1 143
-25 165 -24 22 -34 69 -17 79 4 3 48 -6 97 -18 637 -161 1311 150 1610 742
100 199 148 408 148 643 0 688 -496 1276 -1178 1395 -146 26 -359 24 -503 -4
-589 -114 -1032 -568 -1139 -1166 -24 -133 -21 -360 7 -498 54 -277 189 -532
386 -732 46 -47 80 -85 76 -85 -18 1 -494 79 -497 82 -1 1 -24 36 -50 77 -105
163 -201 407 -242 616 -28 142 -26 493 4 641 109 536 463 996 948 1233 297
145 637 206 950 171z m42 -456 c654 -104 1136 -729 1073 -1391 -43 -454 -298
-836 -697 -1041 -195 -100 -374 -143 -598 -143 -186 0 -415 41 -415 75 0 7 -9
25 -20 38 -17 22 -33 27 -116 38 -89 12 -102 17 -168 61 -298 201 -493 497
-562 855 -22 115 -22 328 -1 450 46 258 165 490 349 680 303 313 716 449 1155
378z m-1863 -2375 c600 -94 1092 -172 1093 -173 1 -1 -3 -36 -10 -77 l-13 -74
-1138 -3 -1138 -2 6 27 c3 16 20 116 36 223 39 252 39 250 57 250 9 0 507 -77
1107 -171z m1123 -806 c-4 -394 -6 -407 -73 -551 -107 -233 -314 -399 -569
-458 -72 -17 -127 -19 -565 -19 -469 1 -488 2 -565 23 -298 82 -516 301 -596
597 -20 72 -22 111 -27 408 -2 180 -1 334 2 342 5 13 153 15 1201 15 l1197 0
-5 -357z m2408 15 c-22 -72 -74 -131 -155 -174 -33 -18 -82 -19 -1082 -22
l-1048 -2 0 110 0 110 1146 0 1145 0 -6 -22z m5 -322 c0 -2 -7 -20 -15 -40
-23 -54 -84 -116 -140 -142 l-50 -24 -1066 0 -1065 0 19 83 c10 45 21 92 23
105 l4 22 1145 0 c630 0 1145 -2 1145 -4z m-5 -348 c-15 -48 -58 -110 -97
-139 -86 -62 -31 -59 -1289 -59 l-1148 0 49 65 c27 36 61 85 75 110 l27 45
1195 0 1194 0 -6 -22z m-8 -354 c-16 -51 -83 -123 -142 -150 l-50 -24 -1393 0
-1393 0 3 31 c3 29 9 33 89 64 47 18 115 51 150 73 l64 40 1342 1 1341 1 -11
-36z m-3097 -182 l0 -42 -502 2 -503 3 -3 40 -3 40 506 0 505 0 0 -43z"/>
<path d="M3954 3959 c-22 -17 -40 -32 -42 -34 -5 -5 70 -115 77 -115 4 0 28
14 55 30 l47 30 -42 60 c-23 33 -45 60 -49 60 -4 0 -25 -14 -46 -31z"/>
<path d="M4105 3709 c-22 -10 -44 -20 -48 -21 -5 -2 1 -24 11 -49 11 -25 30
-86 43 -135 20 -77 23 -112 23 -254 -1 -167 -2 -174 -55 -359 -4 -12 17 -23
88 -45 20 -6 24 -1 44 66 64 215 65 463 2 678 -21 72 -50 140 -60 139 -4 0
-26 -9 -48 -20z"/>
<path d="M330 1332 c0 -165 3 -212 20 -276 26 -105 81 -204 155 -283 l61 -67
37 40 c20 21 37 43 37 48 0 4 -22 33 -50 63 -58 63 -116 176 -130 252 -6 29
-10 136 -10 237 l0 184 -60 0 -60 0 0 -198z"/>
<path d="M731 660 l-31 -50 50 -25 c27 -14 53 -25 57 -25 4 0 17 21 28 47 11
26 21 50 23 53 2 5 -81 50 -92 50 -3 0 -18 -22 -35 -50z"/>
</g>
</svg>
