<svg width="115" height="27" viewBox="0 0 115 27" fill="none" xmlns="http://www.w3.org/2000/svg">
<g clip-path="url(#clip0_1240_184)">
<path d="M27.1609 7.68596C27.1609 6.55597 27.4053 5.55093 27.8943 4.67084C28.3832 3.77988 29.0623 3.08993 29.9315 2.60099C30.8116 2.10119 31.8058 1.85129 32.9141 1.85129C34.2722 1.85129 35.4348 2.20984 36.4018 2.92695C37.3688 3.64406 38.0153 4.62194 38.3413 5.86059H35.2773C35.0491 5.38251 34.7231 5.01853 34.2994 4.76862C33.8865 4.51872 33.4139 4.39377 32.8815 4.39377C32.0231 4.39377 31.3277 4.69257 30.7953 5.29016C30.2629 5.88775 29.9967 6.68635 29.9967 7.68596C29.9967 8.68557 30.2629 9.48417 30.7953 10.0818C31.3277 10.6794 32.0231 10.9782 32.8815 10.9782C33.4139 10.9782 33.8865 10.8532 34.2994 10.6033C34.7231 10.3534 35.0491 9.98941 35.2773 9.51134H38.3413C38.0153 10.75 37.3688 11.7279 36.4018 12.445C35.4348 13.1512 34.2722 13.5043 32.9141 13.5043C31.8058 13.5043 30.8116 13.2599 29.9315 12.7709C29.0623 12.2711 28.3832 11.5812 27.8943 10.7011C27.4053 9.821 27.1609 8.81596 27.1609 7.68596ZM47.4962 1.98167V4.21449H42.835V6.62659H46.3227V8.79423H42.835V13.4229H40.048V1.98167H47.4962ZM57.1914 1.98167V4.21449H54.16V13.4229H51.3731V4.21449H48.3416V1.98167H57.1914ZM58.1175 7.68596C58.1175 6.55597 58.362 5.55093 58.8509 4.67084C59.3398 3.77988 60.0189 3.08993 60.8881 2.60099C61.7682 2.10119 62.7624 1.85129 63.8707 1.85129C65.2288 1.85129 66.3914 2.20984 67.3584 2.92695C68.3255 3.64406 68.9719 4.62194 69.2979 5.86059H66.2339C66.0057 5.38251 65.6798 5.01853 65.256 4.76862C64.8431 4.51872 64.3705 4.39377 63.8381 4.39377C62.9797 4.39377 62.2843 4.69257 61.7519 5.29016C61.2195 5.88775 60.9533 6.68635 60.9533 7.68596C60.9533 8.68557 61.2195 9.48417 61.7519 10.0818C62.2843 10.6794 62.9797 10.9782 63.8381 10.9782C64.3705 10.9782 64.8431 10.8532 65.256 10.6033C65.6798 10.3534 66.0057 9.98941 66.2339 9.51134H69.2979C68.9719 10.75 68.3255 11.7279 67.3584 12.445C66.3914 13.1512 65.2288 13.5043 63.8707 13.5043C62.7624 13.5043 61.7682 13.2599 60.8881 12.7709C60.0189 12.2711 59.3398 11.5812 58.8509 10.7011C58.362 9.821 58.1175 8.81596 58.1175 7.68596ZM32.7837 17.7954V19.2839H30.7627V25.4229H28.9048V19.2839H26.8838V17.7954H32.7837ZM34.3898 18.5016C34.2015 18.5016 34.0421 18.4364 33.9117 18.3061C33.7813 18.1757 33.7161 18.0163 33.7161 17.828C33.7161 17.6397 33.7813 17.4803 33.9117 17.3499C34.0421 17.2195 34.2015 17.1543 34.3898 17.1543C34.5709 17.1543 34.723 17.2195 34.8461 17.3499C34.9765 17.4803 35.0417 17.6397 35.0417 17.828C35.0417 18.0163 34.9765 18.1757 34.8461 18.3061C34.723 18.4364 34.5709 18.5016 34.3898 18.5016ZM34.8679 19.4687V25.4229H33.8791V19.4687H34.8679ZM37.5418 17.3825V25.4229H36.553V17.3825H37.5418ZM44.6596 22.2176C44.6596 22.4059 44.6487 22.6051 44.627 22.8152H39.868C39.9042 23.4019 40.1034 23.8619 40.4656 24.1951C40.835 24.521 41.2805 24.684 41.802 24.684C42.2294 24.684 42.5843 24.5862 42.8668 24.3906C43.1565 24.1878 43.3593 23.9198 43.4752 23.5866H44.54C44.3807 24.1589 44.062 24.6261 43.5839 24.9882C43.1058 25.3432 42.5119 25.5206 41.802 25.5206C41.237 25.5206 40.7299 25.3939 40.2808 25.1404C39.839 24.8868 39.4913 24.5283 39.2378 24.0647C38.9842 23.5939 38.8575 23.0506 38.8575 22.4349C38.8575 21.8192 38.9806 21.2795 39.2269 20.816C39.4732 20.3524 39.8173 19.9974 40.2591 19.7512C40.7082 19.4976 41.2225 19.3709 41.802 19.3709C42.367 19.3709 42.8668 19.494 43.3014 19.7403C43.736 19.9866 44.0692 20.327 44.301 20.7616C44.54 21.189 44.6596 21.6743 44.6596 22.2176ZM43.6382 22.0111C43.6382 21.6345 43.5549 21.3121 43.3883 21.0441C43.2217 20.7689 42.9935 20.5624 42.7038 20.4248C42.4213 20.2799 42.1062 20.2075 41.7585 20.2075C41.2587 20.2075 40.8314 20.3669 40.4764 20.6856C40.1287 21.0043 39.9295 21.4461 39.8788 22.0111H43.6382ZM55.6611 25.4229L54.6724 24.4232C54.303 24.8071 53.9082 25.0933 53.4881 25.2816C53.0679 25.4627 52.5935 25.5532 52.0647 25.5532C51.5432 25.5532 51.0796 25.4591 50.6739 25.2707C50.2756 25.0824 49.9641 24.8144 49.7395 24.4667C49.5222 24.119 49.4136 23.7134 49.4136 23.2498C49.4136 22.721 49.5621 22.2574 49.859 21.859C50.1633 21.4534 50.6088 21.1347 51.1955 20.9029C50.9637 20.6276 50.7971 20.3741 50.6957 20.1423C50.5943 19.9105 50.5436 19.657 50.5436 19.3817C50.5436 19.063 50.6232 18.7769 50.7826 18.5234C50.9492 18.2626 51.1846 18.0598 51.4888 17.9149C51.7931 17.77 52.1444 17.6976 52.5428 17.6976C52.9339 17.6976 53.2744 17.7737 53.5641 17.9258C53.8539 18.0779 54.0712 18.2916 54.216 18.5668C54.3609 18.8348 54.4261 19.1355 54.4116 19.4687H53.4229C53.4301 19.1717 53.3468 18.9399 53.173 18.7733C52.9991 18.5994 52.7746 18.5125 52.4993 18.5125C52.2096 18.5125 51.9742 18.5958 51.7931 18.7624C51.6192 18.9218 51.5323 19.1282 51.5323 19.3817C51.5323 19.599 51.5903 19.8091 51.7062 20.0119C51.8293 20.2147 52.0321 20.4646 52.3146 20.7616L54.5746 23.0325L54.7702 22.7283L55.509 21.4896H56.5738L55.6829 23.0325C55.5597 23.2498 55.4148 23.478 55.2482 23.717L56.9541 25.4229H55.6611ZM52.0647 24.7057C52.4559 24.7057 52.8072 24.6297 53.1186 24.4776C53.4374 24.3255 53.738 24.09 54.0205 23.7713L51.7931 21.5331C50.8659 21.888 50.4023 22.4494 50.4023 23.2172C50.4023 23.6446 50.5544 23.9995 50.8587 24.282C51.1701 24.5645 51.5721 24.7057 52.0647 24.7057ZM61.2859 21.5983C61.2859 20.8449 61.4489 20.1749 61.7748 19.5882C62.1008 18.9942 62.5535 18.5342 63.133 18.2083C63.7197 17.8751 64.3825 17.7085 65.1213 17.7085C66.0268 17.7085 66.8018 17.9475 67.4465 18.4256C68.0912 18.9037 68.5222 19.5556 68.7395 20.3813H66.6968C66.5447 20.0626 66.3274 19.82 66.0449 19.6534C65.7696 19.4868 65.4545 19.4035 65.0996 19.4035C64.5274 19.4035 64.0638 19.6027 63.7088 20.0011C63.3539 20.3995 63.1764 20.9319 63.1764 21.5983C63.1764 22.2647 63.3539 22.7971 63.7088 23.1955C64.0638 23.5939 64.5274 23.7931 65.0996 23.7931C65.4545 23.7931 65.7696 23.7098 66.0449 23.5432C66.3274 23.3765 66.5447 23.1339 66.6968 22.8152H68.7395C68.5222 23.6409 68.0912 24.2929 67.4465 24.7709C66.8018 25.2418 66.0268 25.4772 65.1213 25.4772C64.3825 25.4772 63.7197 25.3142 63.133 24.9882C62.5535 24.655 62.1008 24.1951 61.7748 23.6083C61.4489 23.0216 61.2859 22.3516 61.2859 21.5983ZM75.4729 22.2176C75.4729 22.4059 75.4621 22.6051 75.4403 22.8152H70.6813C70.7175 23.4019 70.9167 23.8619 71.2789 24.1951C71.6483 24.521 72.0938 24.684 72.6154 24.684C73.0427 24.684 73.3977 24.5862 73.6802 24.3906C73.9699 24.1878 74.1727 23.9198 74.2886 23.5866H75.3534C75.1941 24.1589 74.8753 24.6261 74.3973 24.9882C73.9192 25.3432 73.3252 25.5206 72.6154 25.5206C72.0504 25.5206 71.5433 25.3939 71.0942 25.1404C70.6524 24.8868 70.3047 24.5283 70.0511 24.0647C69.7976 23.5939 69.6709 23.0506 69.6709 22.4349C69.6709 21.8192 69.794 21.2795 70.0403 20.816C70.2866 20.3524 70.6306 19.9974 71.0725 19.7512C71.5216 19.4976 72.0359 19.3709 72.6154 19.3709C73.1804 19.3709 73.6802 19.494 74.1148 19.7403C74.5494 19.9866 74.8826 20.327 75.1144 20.7616C75.3534 21.189 75.4729 21.6743 75.4729 22.2176ZM74.4516 22.0111C74.4516 21.6345 74.3683 21.3121 74.2017 21.0441C74.0351 20.7689 73.8069 20.5624 73.5172 20.4248C73.2347 20.2799 72.9196 20.2075 72.5719 20.2075C72.0721 20.2075 71.6447 20.3669 71.2898 20.6856C70.9421 21.0043 70.7429 21.4461 70.6922 22.0111H74.4516ZM77.7668 20.4357C77.9406 20.0952 78.1869 19.8308 78.5056 19.6425C78.8316 19.4542 79.2264 19.36 79.69 19.36V20.3813H79.4292C78.3209 20.3813 77.7668 20.9826 77.7668 22.185V25.4229H76.778V19.4687H77.7668V20.4357ZM80.4619 22.424C80.4619 21.8156 80.585 21.2832 80.8313 20.8268C81.0776 20.3632 81.4144 20.0047 81.8418 19.7512C82.2764 19.4976 82.7581 19.3709 83.2869 19.3709C83.8084 19.3709 84.2611 19.4831 84.645 19.7077C85.029 19.9322 85.3151 20.2147 85.5034 20.5552V19.4687H86.503V25.4229H85.5034V24.3146C85.3078 24.6623 85.0145 24.952 84.6233 25.1838C84.2394 25.4084 83.7903 25.5206 83.276 25.5206C82.7472 25.5206 82.2692 25.3903 81.8418 25.1295C81.4144 24.8687 81.0776 24.5029 80.8313 24.0321C80.585 23.5613 80.4619 23.0252 80.4619 22.424ZM85.5034 22.4349C85.5034 21.9858 85.4129 21.5946 85.2318 21.2614C85.0507 20.9282 84.8044 20.6747 84.4929 20.5009C84.1887 20.3198 83.8519 20.2292 83.4825 20.2292C83.113 20.2292 82.7762 20.3162 82.472 20.49C82.1678 20.6638 81.9251 20.9174 81.744 21.2506C81.5629 21.5838 81.4724 21.9749 81.4724 22.424C81.4724 22.8804 81.5629 23.2788 81.744 23.6192C81.9251 23.9524 82.1678 24.2096 82.472 24.3906C82.7762 24.5645 83.113 24.6514 83.4825 24.6514C83.8519 24.6514 84.1887 24.5645 84.4929 24.3906C84.8044 24.2096 85.0507 23.9524 85.2318 23.6192C85.4129 23.2788 85.5034 22.884 85.5034 22.4349ZM95.3341 19.36C95.7977 19.36 96.2106 19.4578 96.5728 19.6534C96.935 19.8417 97.2211 20.1278 97.4312 20.5117C97.6412 20.8956 97.7463 21.3628 97.7463 21.9134V25.4229H96.7684V22.0546C96.7684 21.4606 96.6199 21.0079 96.3229 20.6964C96.0332 20.3777 95.6384 20.2184 95.1386 20.2184C94.6243 20.2184 94.215 20.385 93.9108 20.7182C93.6066 21.0441 93.4544 21.5186 93.4544 22.1415V25.4229H92.4766V22.0546C92.4766 21.4606 92.3281 21.0079 92.0311 20.6964C91.7413 20.3777 91.3466 20.2184 90.8468 20.2184C90.3325 20.2184 89.9232 20.385 89.619 20.7182C89.3148 21.0441 89.1626 21.5186 89.1626 22.1415V25.4229H88.1739V19.4687H89.1626V20.327C89.3582 20.0155 89.619 19.7765 89.9449 19.6099C90.2782 19.4433 90.644 19.36 91.0423 19.36C91.5422 19.36 91.984 19.4723 92.3679 19.6968C92.7518 19.9214 93.0379 20.251 93.2263 20.6856C93.3929 20.2654 93.6681 19.9395 94.052 19.7077C94.4359 19.4759 94.8633 19.36 95.3341 19.36ZM99.8788 18.5016C99.6905 18.5016 99.5311 18.4364 99.4008 18.3061C99.2704 18.1757 99.2052 18.0163 99.2052 17.828C99.2052 17.6397 99.2704 17.4803 99.4008 17.3499C99.5311 17.2195 99.6905 17.1543 99.8788 17.1543C100.06 17.1543 100.212 17.2195 100.335 17.3499C100.466 17.4803 100.531 17.6397 100.531 17.828C100.531 18.0163 100.466 18.1757 100.335 18.3061C100.212 18.4364 100.06 18.5016 99.8788 18.5016ZM100.357 19.4687V25.4229H99.3682V19.4687H100.357ZM101.673 22.4349C101.673 21.8192 101.796 21.2832 102.042 20.8268C102.288 20.3632 102.629 20.0047 103.063 19.7512C103.505 19.4976 104.009 19.3709 104.574 19.3709C105.305 19.3709 105.906 19.5483 106.377 19.9033C106.855 20.2582 107.17 20.7508 107.323 21.381H106.258C106.156 21.0188 105.957 20.7327 105.66 20.5226C105.37 20.3125 105.008 20.2075 104.574 20.2075C104.009 20.2075 103.552 20.4031 103.205 20.7942C102.857 21.1781 102.683 21.725 102.683 22.4349C102.683 23.152 102.857 23.7061 103.205 24.0973C103.552 24.4884 104.009 24.684 104.574 24.684C105.008 24.684 105.37 24.5826 105.66 24.3798C105.95 24.177 106.149 23.8872 106.258 23.5106H107.323C107.163 24.119 106.845 24.608 106.366 24.9774C105.888 25.3396 105.291 25.5206 104.574 25.5206C104.009 25.5206 103.505 25.3939 103.063 25.1404C102.629 24.8868 102.288 24.5283 102.042 24.0647C101.796 23.6011 101.673 23.0578 101.673 22.4349ZM110.75 25.5206C110.293 25.5206 109.884 25.4446 109.522 25.2925C109.16 25.1331 108.874 24.9158 108.664 24.6405C108.454 24.3581 108.338 24.0357 108.316 23.6735H109.337C109.366 23.9705 109.504 24.2132 109.75 24.4015C110.004 24.5898 110.333 24.684 110.739 24.684C111.116 24.684 111.413 24.6007 111.63 24.4341C111.847 24.2675 111.956 24.0574 111.956 23.8039C111.956 23.5432 111.84 23.3512 111.608 23.2281C111.376 23.0977 111.018 22.9709 110.532 22.8478C110.091 22.7319 109.728 22.616 109.446 22.5001C109.171 22.3769 108.932 22.1995 108.729 21.9677C108.533 21.7286 108.435 21.4172 108.435 21.0333C108.435 20.729 108.526 20.4502 108.707 20.1966C108.888 19.9431 109.145 19.7439 109.479 19.599C109.812 19.4469 110.192 19.3709 110.619 19.3709C111.279 19.3709 111.811 19.5375 112.217 19.8707C112.622 20.2039 112.84 20.6602 112.868 21.2397H111.88C111.858 20.9282 111.731 20.6783 111.499 20.49C111.275 20.3017 110.971 20.2075 110.587 20.2075C110.232 20.2075 109.949 20.2836 109.739 20.4357C109.529 20.5878 109.424 20.787 109.424 21.0333C109.424 21.2288 109.486 21.3918 109.609 21.5222C109.739 21.6453 109.899 21.7468 110.087 21.8264C110.283 21.8989 110.551 21.9822 110.891 22.0763C111.318 22.1922 111.666 22.3081 111.934 22.424C112.202 22.5327 112.43 22.6993 112.619 22.9238C112.814 23.1484 112.916 23.4417 112.923 23.8039C112.923 24.1299 112.832 24.4232 112.651 24.684C112.47 24.9448 112.213 25.1512 111.88 25.3033C111.554 25.4482 111.177 25.5206 110.75 25.5206Z" fill="black"/>
<path d="M6.7167 5.95072C8.82341 3.95378 11.2896 3.03513 14.1246 3.20452C17.0096 3.37718 19.2945 4.77145 21.2418 7.04203C21.9325 6.26997 22.5577 5.56957 23.2297 4.82031C23.1641 4.73236 23.0922 4.6444 23.0234 4.5597L22.5702 4.67698L22.6702 4.13621C21.323 2.5986 19.6352 1.48449 17.8098 0.810155L17.3096 1.48123L17.4472 0.686364C16.175 0.256355 14.8466 0.0380932 13.5213 0.0283203L13.3244 0.989325L12.9743 0.0348356C11.4084 0.0934732 9.86426 0.445299 8.4577 1.09683C8.40144 1.12289 8.34831 1.15547 8.29517 1.18153L8.34831 1.79396L7.94509 1.39002L5.62583 2.95043L6.47602 5.29919C6.53228 5.51745 6.61042 5.73245 6.71045 5.9442L6.7167 5.95072Z" fill="#FF3839"/>
<path d="M10.0393 5.10699C9.19849 5.52397 8.62337 5.88556 8.24516 6.27322V6.21459L7.18242 7.01922L8.51084 9.93156C8.52022 9.94785 8.52647 9.96413 8.53897 9.98694C11.4459 6.29277 15.8281 6.78467 18.2036 9.81102C18.9163 9.10737 19.6258 8.40698 20.3228 7.71636C17.9692 4.38379 13.6432 3.3218 10.0393 5.10699Z" fill="#FF3839"/>
<path d="M20.676 20.6655C18.6912 22.7927 16.2844 23.8678 13.4432 23.8775C10.555 23.8873 8.1889 22.6429 6.11344 20.5026C5.46955 21.317 4.88505 22.0565 4.25991 22.8481C4.3318 22.9328 4.40681 23.0143 4.48183 23.0957L4.92568 22.9491L4.85691 23.4931C6.2916 24.9428 8.04199 25.9461 9.9049 26.5032L10.3644 25.8028L10.2737 26.6074C11.5678 26.9495 12.9087 27.0831 14.2308 27.0081L14.3715 26.0373L14.7747 26.9658C16.3344 26.8062 17.8535 26.3599 19.2194 25.6171C19.2757 25.5878 19.3257 25.552 19.3757 25.5194L19.2851 24.9135L19.7102 25.2913L21.9325 23.5843L20.9448 21.2942C20.8761 21.0792 20.7854 20.8707 20.6729 20.6655H20.676Z" fill="#FF3839"/>
<path d="M8.98594 17.5447C8.31705 18.2939 7.64815 19.0399 6.99176 19.7729C9.53919 22.9491 13.9183 23.7342 17.4097 21.7177C18.2255 21.2486 20.1478 19.6263 20.1478 19.6263L18.6506 16.8052C18.6381 16.7889 18.6318 16.7726 18.6193 16.7531C15.9343 20.6264 11.5303 20.4147 8.98282 17.5447H8.98594Z" fill="#FF3839"/>
<path d="M4.81003 3.66385C4.1255 4.37727 3.541 5.09721 3.05027 5.81715L3.81606 6.57293L2.79709 6.1983C1.80312 7.75219 1.22174 9.29632 0.931052 10.7818L1.66246 11.189L0.846658 11.2704C0.571598 13.0491 0.702877 14.7301 1.02482 16.2156L2.6533 16.095L1.12484 16.6488C1.54056 18.3265 2.18133 19.7273 2.71269 20.6981L3.45973 20.027L2.90023 21.0303C3.32533 21.7666 3.64102 22.1836 3.64102 22.1836L9.38916 13.6811L4.8069 3.66385H4.81003Z" fill="#FF3839"/>
</g>
<defs>
<clipPath id="clip0_1240_184">
<rect width="114" height="27" fill="white" transform="translate(0.697266)"/>
</clipPath>
</defs>
</svg>
